<?xml version="1.0" standalone="no"?>
<!DOCTYPE svg PUBLIC "-//W3C//DTD SVG 20010904//EN"
 "http://www.w3.org/TR/2001/REC-SVG-20010904/DTD/svg10.dtd">
<svg version="1.0" xmlns="http://www.w3.org/2000/svg"
 width="100%" height="100%" viewBox="0 0 1013.000000 924.000000"
 preserveAspectRatio="xMidYMid meet">

<g transform="translate(0.000000,924.000000) scale(0.100000,-0.100000)"
fill="#000000" stroke="none">
<path d="M348 9216 c-134 -55 -255 -167 -314 -290 l-34 -70 0 -4222 0 -4221
36 -72 c66 -133 196 -248 338 -300 l71 -26 4585 0 c3915 0 4592 2 4635 14 212
60 385 244 430 456 22 106 22 8194 0 8300 -37 175 -159 332 -319 411 l-80 39
-4645 2 -4646 3 -57 -24z m9250 -218 c51 -12 135 -62 168 -99 34 -38 69 -100
82 -145 9 -32 12 -988 12 -4122 l0 -4081 -21 -57 c-32 -85 -93 -153 -174 -194
l-68 -35 -4561 0 -4561 0 -47 23 c-75 38 -134 96 -170 170 l-33 67 -3 4090
c-2 3170 0 4100 9 4135 30 112 126 212 234 246 56 18 9062 20 9133 2z"/>
<path d="M7450 6940 l0 -1330 235 0 235 0 0 1330 0 1330 -235 0 -235 0 0
-1330z"/>
<path d="M5967 7229 c-146 -19 -266 -78 -370 -184 -128 -130 -193 -284 -218
-513 -21 -197 -63 -269 -173 -292 -65 -13 -369 -7 -426 10 -93 26 -170 102
-211 209 -19 48 -23 81 -27 224 l-4 167 -239 0 -239 0 0 -147 c0 -155 -10
-215 -49 -290 -50 -98 -130 -154 -245 -173 -75 -12 -352 -6 -401 8 -113 34
-175 102 -220 242 -10 30 -45 112 -78 183 l-60 127 -254 0 c-139 0 -253 -2
-253 -4 0 -3 25 -54 55 -114 61 -122 129 -314 151 -429 16 -84 20 -216 8 -279
-39 -215 -280 -369 -679 -434 -66 -11 -138 -20 -160 -20 -22 0 -50 -3 -62 -6
l-23 -6 0 -304 0 -304 54 0 c81 0 287 38 412 76 201 60 369 140 504 238 132
96 284 283 341 422 l21 51 52 -19 c100 -39 187 -48 434 -48 260 1 346 11 451
54 78 31 160 92 203 149 l32 43 61 -61 c68 -70 168 -130 264 -158 56 -17 105
-21 329 -24 374 -7 476 11 637 113 l83 51 63 -44 c146 -101 281 -144 459 -145
136 -1 210 15 326 72 98 48 196 135 259 230 98 147 131 280 122 494 -6 165
-26 245 -92 381 -79 163 -201 285 -370 370 -147 73 -315 103 -468 84z m244
-531 c88 -29 180 -119 203 -198 20 -67 20 -111 0 -158 -37 -89 -124 -136 -247
-135 -127 2 -238 64 -290 163 -25 48 -28 63 -24 115 5 70 31 126 80 173 66 64
165 78 278 40z"/>
<path d="M3820 5245 l0 -125 125 0 125 0 0 125 0 125 -125 0 -125 0 0 -125z"/>
<path d="M4280 5245 l0 -125 125 0 125 0 0 125 0 125 -125 0 -125 0 0 -125z"/>
<path d="M7592 4355 c-736 -272 -740 -274 -832 -334 -245 -157 -315 -366 -189
-562 48 -76 141 -148 494 -386 352 -238 380 -258 443 -317 84 -79 96 -146 37
-201 -74 -71 -62 -70 -725 -72 -364 -1 -620 2 -660 8 -77 12 -131 42 -188 103
-75 82 -101 176 -102 374 l0 132 -235 0 -235 0 0 -92 c0 -221 -30 -335 -108
-420 -81 -88 -177 -112 -409 -104 -79 3 -161 11 -181 17 -85 25 -171 112 -205
207 -21 58 -37 188 -37 305 l0 87 -235 0 -235 0 0 -137 c0 -147 -15 -234 -51
-304 -30 -59 -104 -126 -168 -151 -51 -20 -72 -22 -256 -21 -159 0 -209 4
-244 17 -95 35 -150 100 -195 231 -16 44 -54 132 -85 195 l-56 115 -252 3
c-139 1 -253 0 -253 -3 0 -3 27 -60 60 -128 111 -228 165 -434 158 -607 -5
-120 -27 -182 -93 -260 -102 -123 -304 -212 -588 -260 -66 -11 -138 -20 -160
-20 -23 0 -52 -3 -64 -6 l-23 -6 0 -306 0 -305 88 6 c196 13 450 82 649 177
267 127 436 285 551 516 l45 91 41 -18 c94 -41 204 -51 486 -46 284 5 325 11
436 63 68 32 155 103 184 148 l21 35 67 -68 c84 -85 198 -145 317 -166 115
-21 532 -20 651 0 129 23 222 70 309 159 l70 71 30 -39 c39 -52 153 -129 236
-160 120 -45 179 -47 889 -44 659 4 666 4 740 27 158 48 302 151 385 277 84
126 125 315 105 478 -19 157 -76 264 -202 381 -40 36 -183 139 -325 233 -445
293 -487 327 -465 376 19 42 87 72 392 171 162 53 406 133 543 178 l247 80 0
254 c0 139 -3 253 -7 252 -5 0 -280 -101 -611 -224z"/>
<path d="M3750 1495 l0 -125 125 0 125 0 0 125 0 125 -125 0 -125 0 0 -125z"/>
<path d="M4210 1495 l0 -125 125 0 125 0 0 125 0 125 -125 0 -125 0 0 -125z"/>
<path d="M5390 1495 l0 -125 125 0 125 0 0 125 0 125 -125 0 -125 0 0 -125z"/>
</g>
</svg>
